#Build_3_4_168_14.obj

v 41.25246 -98.31377 5.366276
v 41.25246 1.68623 -4.633722
v 41.25246 -98.31376 -4.633722
v 41.25246 1.68623 5.366276
v 41.25246 -98.31376 -4.633722
v 31.25246 1.68623 -4.633726
v 31.25246 -98.31376 -4.633724
v 41.25246 1.68623 -4.633722

vn 0.2729492 0 0.9619141
vn 0.2729492 0 0.9619141
vn 0.2729492 0 0.9619141
vn 0.2729492 0 0.9619141
vn 0.9619141 -2.980232E-07 -0.2729492
vn 0.9619141 -2.980232E-07 -0.2729492
vn 0.9619141 -2.980232E-07 -0.2729492
vn 0.9619141 -2.980232E-07 -0.2729492

vt -2 -16.15625
vt 2.998047 17.15625
vt 2.998047 -16.15625
vt -2 17.15625
vt -2 -16.15625
vt 2.998047 17.15625
vt 2.998047 -16.15625
vt -2 17.15625

g Build_3_4_168_14
usemtl Build_3_4_168_14
usemap Build_3_4_168_14
f 1/1/1 3/3/3 2/2/2
f 1/1/1 2/2/2 4/4/4
f 5/5/5 7/7/7 6/6/6
f 5/5/5 6/6/6 8/8/8
