#Build_2_2_169_8.obj

v 7.500009 9.74535E-06 -7.500001
v 7.500007 -99.99998 7.499998
v 7.500007 9.74537E-06 7.499997
v 7.500009 -99.99998 -7.500001
v -7.49999 9.745351E-06 -7.500004
v 7.500009 -99.99998 -7.500001
v 7.500009 9.74535E-06 -7.500001
v -7.49999 -99.99998 -7.500004

vn 0.01340485 0 0.9995117
vn 0.01340485 0 0.9995117
vn 0.01340485 0 0.9995117
vn 0.01340485 0 0.9995117
vn 0.9995117 -2.980232E-07 -0.01340485
vn 0.9995117 -2.980232E-07 -0.01340485
vn 0.9995117 -2.980232E-07 -0.01340485
vn 0.9995117 -2.980232E-07 -0.01340485

vt 4.15625 17.15625
vt -3.158203 -16.15625
vt -3.158203 17.15625
vt 4.15625 -16.15625
vt 4.15625 17.15625
vt -3.158203 -16.15625
vt -3.158203 17.15625
vt 4.15625 -16.15625

g Build_2_2_169_8
usemtl Build_2_2_169_8
usemap Build_2_2_169_8
f 1/1/1 3/3/3 2/2/2
f 2/2/2 4/4/4 1/1/1
f 5/5/5 7/7/7 6/6/6
f 6/6/6 8/8/8 5/5/5
