#Build_3_4_168_13.obj

v 31.25246 -98.31377 5.366277
v 41.25246 -98.31376 -4.633722
v 31.25246 -98.31376 -4.633724
v 41.25246 -98.31377 5.366276
v 31.64847 1.68623 4.970265
v 40.85645 1.68623 -4.23771
v 40.85644 1.68623 4.970266
v 31.64847 1.68623 -4.237711
v 31.25246 1.78623 5.366277
v 40.85644 1.786231 4.970266
v 41.25246 1.78623 5.366276
v 31.64847 1.786231 4.970265
v 40.85645 1.78623 -4.23771
v 41.25246 1.78623 -4.633722
v 31.64847 1.78623 -4.237711
v 31.25246 1.78623 -4.633726
v 41.25246 1.68623 5.366276
v 41.25246 1.78623 -4.633722
v 41.25246 1.68623 -4.633722
v 41.25246 1.78623 5.366276
v 41.25246 1.68623 -4.633722
v 31.25246 1.78623 -4.633726
v 31.25246 1.68623 -4.633726
v 41.25246 1.78623 -4.633722
v 40.85644 1.68623 4.970266
v 31.64847 1.786231 4.970265
v 31.64847 1.68623 4.970265
v 40.85644 1.786231 4.970266
v 31.64847 1.68623 4.970265
v 31.64847 1.78623 -4.237711
v 31.64847 1.68623 -4.237711
v 31.64847 1.786231 4.970265
v 31.64847 1.68623 -4.237711
v 40.85645 1.78623 -4.23771
v 40.85645 1.68623 -4.23771
v 31.64847 1.78623 -4.237711
v 40.85645 1.68623 -4.23771
v 40.85644 1.786231 4.970266
v 40.85644 1.68623 4.970266
v 40.85645 1.78623 -4.23771

vn -2.980232E-07 -1 5.960464E-08
vn -2.980232E-07 -1 5.960464E-08
vn -2.980232E-07 -1 5.960464E-08
vn -2.980232E-07 -1 5.960464E-08
vn 2.980232E-07 1 -5.960464E-08
vn 2.980232E-07 1 -5.960464E-08
vn 2.980232E-07 1 -5.960464E-08
vn 2.980232E-07 1 -5.960464E-08
vn 2.980232E-07 1 -5.960464E-08
vn 2.980232E-07 1 -5.960464E-08
vn 2.980232E-07 1 -5.960464E-08
vn 2.980232E-07 1 -5.960464E-08
vn 2.980232E-07 1 -5.960464E-08
vn 2.980232E-07 1 -5.960464E-08
vn 2.980232E-07 1 -5.960464E-08
vn 2.980232E-07 1 -5.960464E-08
vn 0.2729492 0 0.9619141
vn 0.2729492 0 0.9619141
vn 0.2729492 0 0.9619141
vn 0.2729492 0 0.9619141
vn 0.9619141 -2.980232E-07 -0.2729492
vn 0.9619141 -2.980232E-07 -0.2729492
vn 0.9619141 -2.980232E-07 -0.2729492
vn 0.9619141 -2.980232E-07 -0.2729492
vn 0.9619141 -2.980232E-07 -0.2729492
vn 0.9619141 -2.980232E-07 -0.2729492
vn 0.9619141 -2.980232E-07 -0.2729492
vn 0.9619141 -2.980232E-07 -0.2729492
vn 0.2729492 0 0.9619141
vn 0.2729492 0 0.9619141
vn 0.2729492 0 0.9619141
vn 0.2729492 0 0.9619141
vn -0.9619141 2.980232E-07 0.2729492
vn -0.9619141 2.980232E-07 0.2729492
vn -0.9619141 2.980232E-07 0.2729492
vn -0.9619141 2.980232E-07 0.2729492
vn -0.2729492 0 -0.9619141
vn -0.2729492 0 -0.9619141
vn -0.2729492 0 -0.9619141
vn -0.2729492 0 -0.9619141

vt 3 -1.999023
vt -2 2.998047
vt 2.998047 3
vt -1.999023 -2
vt 10.64063 -22.60938
vt 19.84375 -13.40625
vt 19.84375 -22.60938
vt 10.64063 -13.40625
vt 10.24219 -23
vt 19.84375 -22.60938
vt 20.23438 -23
vt 10.64063 -22.60938
vt 19.84375 -13.40625
vt 20.23438 -13.00781
vt 10.64063 -13.40625
vt 10.24219 -13.00781
vt -23 1.949219
vt -13.00781 2.048828
vt -13.00781 1.949219
vt -23 2.048828
vt -19.23438 1.949219
vt -9.242188 2.048828
vt -9.242188 1.949219
vt -19.23438 2.048828
vt -18.84375 1.949219
vt -9.640625 2.048828
vt -9.640625 1.949219
vt -18.84375 2.048828
vt -22.60938 1.949219
vt -13.40625 2.048828
vt -13.40625 1.949219
vt -22.60938 2.048828
vt 10.64063 1.949219
vt 19.84375 2.048828
vt 19.84375 1.949219
vt 10.64063 2.048828
vt 14.40625 1.949219
vt 23.60938 2.048828
vt 23.60938 1.949219
vt 14.40625 2.048828

g Build_3_4_168_13
usemtl Build_3_4_168_13
usemap Build_3_4_168_13
f 1/1/1 3/3/3 2/2/2
f 1/1/1 2/2/2 4/4/4
f 5/5/5 7/7/7 6/6/6
f 5/5/5 6/6/6 8/8/8
f 9/9/9 11/11/11 10/10/10
f 9/9/9 10/10/10 12/12/12
f 11/11/11 13/13/13 10/10/10
f 11/11/11 14/14/14 13/13/13
f 14/14/14 15/15/15 13/13/13
f 14/14/14 16/16/16 15/15/15
f 16/16/16 9/9/9 12/12/12
f 16/16/16 12/12/12 15/15/15
f 17/17/17 19/19/19 18/18/18
f 17/17/17 18/18/18 20/20/20
f 21/21/21 23/23/23 22/22/22
f 21/21/21 22/22/22 24/24/24
f 25/25/25 27/27/27 26/26/26
f 25/25/25 26/26/26 28/28/28
f 29/29/29 31/31/31 30/30/30
f 29/29/29 30/30/30 32/32/32
f 33/33/33 35/35/35 34/34/34
f 33/33/33 34/34/34 36/36/36
f 37/37/37 39/39/39 38/38/38
f 37/37/37 38/38/38 40/40/40
