#Build_2_2_169_7.obj

v 7.500009 -99.99998 -7.500001
v -7.499993 -99.99998 7.499996
v 7.500007 -99.99998 7.499998
v -7.49999 -99.99998 -7.500004
v -6.999993 9.783119E-06 6.999997
v 7.000009 9.767205E-06 -7.000001
v 7.000007 9.783118E-06 6.999999
v -6.99999 9.767206E-06 -7.000004
v 7.000007 0.1000097 6.999999
v -7.499992 0.1000098 7.499997
v -6.999993 0.1000097 6.999997
v 7.500007 0.1000098 7.499997
v 7.000009 0.1000098 -7.000001
v 7.500009 0.1000098 -7.500001
v -6.99999 0.1000098 -7.000004
v -7.49999 0.1000098 -7.500004
v 7.500009 0.1000098 -7.500001
v 7.500007 9.74537E-06 7.499997
v 7.500007 0.1000098 7.499997
v 7.500009 9.74535E-06 -7.500001
v -7.49999 0.1000098 -7.500004
v 7.500009 9.74535E-06 -7.500001
v 7.500009 0.1000098 -7.500001
v -7.49999 9.745351E-06 -7.500004
v -6.999993 0.1000097 6.999997
v 7.000007 9.783118E-06 6.999999
v 7.000007 0.1000097 6.999999
v -6.999993 9.783119E-06 6.999997
v -6.99999 0.1000098 -7.000004
v -6.999993 9.783119E-06 6.999997
v -6.999993 0.1000097 6.999997
v -6.99999 9.767206E-06 -7.000004
v 7.000009 0.1000098 -7.000001
v -6.99999 9.767206E-06 -7.000004
v -6.99999 0.1000098 -7.000004
v 7.000009 9.767205E-06 -7.000001
v 7.000007 0.1000097 6.999999
v 7.000009 9.767205E-06 -7.000001
v 7.000009 0.1000098 -7.000001
v 7.000007 9.783118E-06 6.999999

vn -2.980232E-07 -1 0
vn -2.980232E-07 -1 0
vn -2.980232E-07 -1 0
vn -2.980232E-07 -1 0
vn 2.980232E-07 1 0
vn 2.980232E-07 1 0
vn 2.980232E-07 1 0
vn 2.980232E-07 1 0
vn 2.980232E-07 1 0
vn 2.980232E-07 1 0
vn 2.980232E-07 1 0
vn 2.980232E-07 1 0
vn 2.980232E-07 1 0
vn 2.980232E-07 1 0
vn 2.980232E-07 1 0
vn 2.980232E-07 1 0
vn 0.01340485 0 0.9995117
vn 0.01340485 0 0.9995117
vn 0.01340485 0 0.9995117
vn 0.01340485 0 0.9995117
vn 0.9995117 -2.980232E-07 -0.01340485
vn 0.9995117 -2.980232E-07 -0.01340485
vn 0.9995117 -2.980232E-07 -0.01340485
vn 0.9995117 -2.980232E-07 -0.01340485
vn 0.9995117 -2.980232E-07 -0.01340485
vn 0.9995117 -2.980232E-07 -0.01340485
vn 0.9995117 -2.980232E-07 -0.01340485
vn 0.9995117 -2.980232E-07 -0.01340485
vn 0.01340485 0 0.9995117
vn 0.01340485 0 0.9995117
vn 0.01340485 0 0.9995117
vn 0.01340485 0 0.9995117
vn -0.9995117 2.980232E-07 0.01340485
vn -0.9995117 2.980232E-07 0.01340485
vn -0.9995117 2.980232E-07 0.01340485
vn -0.9995117 2.980232E-07 0.01340485
vn -0.01340485 0 -0.9995117
vn -0.01340485 0 -0.9995117
vn -0.01340485 0 -0.9995117
vn -0.01340485 0 -0.9995117

vt -3.25 4.246094
vt 4.25 -3.248047
vt -3.248047 -3.25
vt 4.246094 4.25
vt -6.5 -6.496094
vt 7.5 7.496094
vt 7.496094 -6.5
vt -6.496094 7.5
vt 7.496094 -6.5
vt -7 -6.996094
vt -6.5 -6.496094
vt 7.996094 -7
vt 7.5 7.496094
vt 8 7.996094
vt -6.496094 7.5
vt -6.996094 8
vt 7.996094 0.5498047
vt -7 0.4499512
vt -7 0.5498047
vt 7.996094 0.4499512
vt 7.996094 0.5498047
vt -7 0.4499512
vt -7 0.5498047
vt 7.996094 0.4499512
vt 7.5 0.5498047
vt -6.496094 0.4499512
vt -6.496094 0.5498047
vt 7.5 0.4499512
vt 7.5 0.5498047
vt -6.496094 0.4499512
vt -6.496094 0.5498047
vt 7.5 0.4499512
vt 7.5 0.5498047
vt -6.496094 0.4499512
vt -6.496094 0.5498047
vt 7.5 0.4499512
vt 7.5 0.5498047
vt -6.496094 0.4499512
vt -6.496094 0.5498047
vt 7.5 0.4499512

g Build_2_2_169_7
usemtl Build_2_2_169_7
usemap Build_2_2_169_7
f 1/1/1 3/3/3 2/2/2
f 2/2/2 4/4/4 1/1/1
f 5/5/5 7/7/7 6/6/6
f 6/6/6 8/8/8 5/5/5
f 9/9/9 11/11/11 10/10/10
f 10/10/10 12/12/12 9/9/9
f 13/13/13 9/9/9 12/12/12
f 12/12/12 14/14/14 13/13/13
f 15/15/15 13/13/13 14/14/14
f 14/14/14 16/16/16 15/15/15
f 11/11/11 15/15/15 16/16/16
f 16/16/16 10/10/10 11/11/11
f 17/17/17 19/19/19 18/18/18
f 18/18/18 20/20/20 17/17/17
f 21/21/21 23/23/23 22/22/22
f 22/22/22 24/24/24 21/21/21
f 25/25/25 27/27/27 26/26/26
f 26/26/26 28/28/28 25/25/25
f 29/29/29 31/31/31 30/30/30
f 30/30/30 32/32/32 29/29/29
f 33/33/33 35/35/35 34/34/34
f 34/34/34 36/36/36 33/33/33
f 37/37/37 39/39/39 38/38/38
f 38/38/38 40/40/40 37/37/37
