#Build_3_3_164_10.obj

v 1.760719 -100.1 6.348044
v 11.76072 -100.1 -3.651959
v 1.760717 -100.1 -3.651957
v 11.76072 -100.1 6.348042
v 2.151777 -0.1003698 5.956982
v 11.3697 -0.1003745 -3.260954
v 11.36971 -0.1003719 5.95698
v 2.151775 -0.1003725 -3.260952
v 1.760742 1.122934E-05 6.348014
v 11.36971 0.0005949247 5.95698
v 11.76074 9.004463E-06 6.348013
v 2.151777 0.0005969749 5.956982
v 11.3697 0.0005922466 -3.260954
v 11.76074 6.105277E-06 -3.651988
v 2.151775 0.000594267 -3.260952
v 1.760739 8.300354E-06 -3.651987
v 11.76074 -0.09999099 6.348013
v 11.76074 6.105277E-06 -3.651988
v 11.76074 -0.09999389 -3.651987
v 11.76074 9.004463E-06 6.348013
v 11.76074 -0.09999389 -3.651987
v 1.760739 8.300354E-06 -3.651987
v 1.760739 -0.09999168 -3.651987
v 11.76074 6.105277E-06 -3.651988
v 11.36971 -0.1003719 5.95698
v 2.151777 0.0005969749 5.956982
v 2.151777 -0.1003698 5.956982
v 11.36971 0.0005949247 5.95698
v 2.151777 -0.1003698 5.956982
v 2.151775 0.000594267 -3.260952
v 2.151775 -0.1003725 -3.260952
v 2.151777 0.0005969749 5.956982
v 2.151775 -0.1003725 -3.260952
v 11.3697 0.0005922466 -3.260954
v 11.3697 -0.1003745 -3.260954
v 2.151775 0.000594267 -3.260952
v 11.3697 -0.1003745 -3.260954
v 11.36971 0.0005949247 5.95698
v 11.36971 -0.1003719 5.95698
v 11.3697 0.0005922466 -3.260954

vn -2.980232E-07 -1 5.960464E-08
vn -2.980232E-07 -1 5.960464E-08
vn -2.980232E-07 -1 5.960464E-08
vn -2.980232E-07 -1 5.960464E-08
vn 2.980232E-07 1 -5.960464E-08
vn 2.980232E-07 1 -5.960464E-08
vn 2.980232E-07 1 -5.960464E-08
vn 2.980232E-07 1 -5.960464E-08
vn 5.543232E-06 0.9995117 0.001498222
vn 5.543232E-06 0.9995117 0.001498222
vn 5.543232E-06 0.9995117 0.001498222
vn 5.543232E-06 0.9995117 0.001498222
vn 0.001498222 0.9995117 -5.304813E-06
vn 0.001498222 0.9995117 -5.304813E-06
vn -4.947186E-06 0.9995117 -0.001498222
vn -4.947186E-06 0.9995117 -0.001498222
vn 0.9995117 -2.980232E-07 -0.003520966
vn 0.9995117 -2.980232E-07 -0.003520966
vn 0.9995117 -2.980232E-07 -0.003520966
vn 0.9995117 -2.980232E-07 -0.003520966
vn -0.003520966 -5.960464E-08 -0.9995117
vn -0.003520966 -5.960464E-08 -0.9995117
vn -0.003520966 -5.960464E-08 -0.9995117
vn -0.003520966 -5.960464E-08 -0.9995117
vn -0.003520966 -5.960464E-08 -0.9995117
vn -0.003520966 -5.960464E-08 -0.9995117
vn -0.003520966 -5.960464E-08 -0.9995117
vn -0.003520966 -5.960464E-08 -0.9995117
vn 0.9995117 -2.980232E-07 -0.003520966
vn 0.9995117 -2.980232E-07 -0.003520966
vn 0.9995117 -2.980232E-07 -0.003520966
vn 0.9995117 -2.980232E-07 -0.003520966
vn 0.003520966 5.960464E-08 0.9995117
vn 0.003520966 5.960464E-08 0.9995117
vn 0.003520966 5.960464E-08 0.9995117
vn 0.003520966 5.960464E-08 0.9995117
vn -0.9995117 2.980232E-07 0.003520966
vn -0.9995117 2.980232E-07 0.003520966
vn -0.9995117 2.980232E-07 0.003520966
vn -0.9995117 2.980232E-07 0.003520966

vt 3 -1.999023
vt -2 2.998047
vt 2.998047 3
vt -1.999023 -2
vt -18.84375 -22.01563
vt -9.632813 -12.79688
vt -9.632813 -22.01563
vt -18.84375 -12.79688
vt -19.23438 -22.40625
vt -9.632813 -22.01563
vt -9.242188 -22.40625
vt -18.84375 -22.01563
vt -9.632813 -12.79688
vt -9.242188 -12.40625
vt -18.84375 -12.79688
vt -19.23438 -12.40625
vt -22.40625 -1.049805
vt -12.40625 -0.949707
vt -12.40625 -1.049805
vt -22.40625 -0.949707
vt 10.24219 -1.049805
vt 20.23438 -0.949707
vt 20.23438 -1.049805
vt 10.24219 -0.949707
vt 10.63281 -1.049805
vt 19.84375 -0.9492188
vt 19.84375 -1.049805
vt 10.63281 -0.9492188
vt -22.01563 -1.049805
vt -12.79688 -0.9492188
vt -12.79688 -1.049805
vt -22.01563 -0.9492188
vt -18.84375 -1.049805
vt -9.632813 -0.9492188
vt -9.632813 -1.049805
vt -18.84375 -0.9492188
vt 13.79688 -1.049805
vt 23.01563 -0.9492188
vt 23.01563 -1.049805
vt 13.79688 -0.9492188

g Build_3_3_164_10
usemtl Build_3_3_164_10
usemap Build_3_3_164_10
f 1/1/1 3/3/3 2/2/2
f 1/1/1 2/2/2 4/4/4
f 5/5/5 7/7/7 6/6/6
f 5/5/5 6/6/6 8/8/8
f 9/9/9 11/11/11 10/10/10
f 9/9/9 10/10/10 12/12/12
f 11/11/11 13/13/13 10/10/10
f 11/11/11 14/14/14 13/13/13
f 14/14/14 15/15/15 13/13/13
f 14/14/14 16/16/16 15/15/15
f 16/16/16 9/9/9 12/12/12
f 16/16/16 12/12/12 15/15/15
f 17/17/17 19/19/19 18/18/18
f 17/17/17 18/18/18 20/20/20
f 21/21/21 23/23/23 22/22/22
f 21/21/21 22/22/22 24/24/24
f 25/25/25 27/27/27 26/26/26
f 25/25/25 26/26/26 28/28/28
f 29/29/29 31/31/31 30/30/30
f 29/29/29 30/30/30 32/32/32
f 33/33/33 35/35/35 34/34/34
f 33/33/33 34/34/34 36/36/36
f 37/37/37 39/39/39 38/38/38
f 37/37/37 38/38/38 40/40/40
