#Build_1_1_170_1.obj

v 12.13921 2.256602 23.27397
v 25.08936 2.256602 21.2406
v 27.13921 2.256602 23.27397
v 14.08936 2.256602 21.2406
v 25.08936 2.256601 10.2406
v 27.13921 2.256602 8.273969
v 14.08936 2.256592 10.2406
v 12.13921 2.256602 8.273968
v 12.13921 1.256602 23.27397
v 27.13921 2.256602 23.27397
v 27.13921 1.256602 23.27397
v 12.13921 2.256602 23.27397
v 27.13921 1.256602 23.27397
v 27.13921 2.256602 8.273969
v 27.13921 1.256602 8.273969
v 27.13921 2.256602 23.27397
v 27.13921 1.256602 8.273969
v 12.13921 2.256602 8.273968
v 12.13921 1.256602 8.273968
v 27.13921 2.256602 8.273969
v 12.13921 1.256602 8.273968
v 12.13921 2.256602 23.27397
v 12.13921 1.256602 23.27397
v 12.13921 2.256602 8.273968
v 9.6392 -17.7434 25.77396
v 29.6392 -17.7434 5.773964
v 29.6392 -17.7434 25.77397
v 9.639204 -17.7434 5.77396
v 29.6392 -18.7434 25.77397
v 29.6392 -17.7434 5.773964
v 29.6392 -18.7434 5.773964
v 29.6392 -17.7434 25.77397
v 29.6392 -18.7434 5.773964
v 9.639204 -17.7434 5.77396
v 9.639204 -18.7434 5.77396
v 29.6392 -17.7434 5.773964
v 9.639199 -8.743403 25.77396
v 29.6392 -8.743403 5.773964
v 9.639204 -8.743403 5.773962
v 29.6392 -8.743403 25.77396
v 9.639199 -7.743403 25.77396
v 29.6392 -7.743403 5.773964
v 29.6392 -7.743403 25.77396
v 9.639204 -7.743403 5.773962
v 29.6392 -8.743403 25.77396
v 29.6392 -7.743403 5.773964
v 29.6392 -8.743403 5.773964
v 29.6392 -7.743403 25.77396
v 29.6392 -8.743403 5.773964
v 9.639204 -7.743403 5.773962
v 9.639204 -8.743403 5.773962
v 29.6392 -7.743403 5.773964

vn 1.788139E-07 1 0
vn 1.788139E-07 1 0
vn 1.788139E-07 1 0
vn 1.788139E-07 1 0
vn 1.788139E-07 1 0
vn 1.788139E-07 1 0
vn -4.589558E-06 1 1.251698E-06
vn -4.589558E-06 1 1.251698E-06
vn -0.9619141 -3.576279E-07 0.2729492
vn -0.9619141 -3.576279E-07 0.2729492
vn -0.9619141 -3.576279E-07 0.2729492
vn -0.9619141 -3.576279E-07 0.2729492
vn 0.2729492 0 0.9619141
vn 0.2729492 0 0.9619141
vn 0.2729492 0 0.9619141
vn 0.2729492 0 0.9619141
vn 0.9619141 3.576279E-07 -0.2729492
vn 0.9619141 3.576279E-07 -0.2729492
vn 0.9619141 3.576279E-07 -0.2729492
vn 0.9619141 3.576279E-07 -0.2729492
vn -0.2729492 0 -0.9619141
vn -0.2729492 0 -0.9619141
vn -0.2729492 0 -0.9619141
vn -0.2729492 0 -0.9619141
vn 1.788139E-07 1 0
vn 1.788139E-07 1 0
vn 1.788139E-07 1 0
vn 1.788139E-07 1 0
vn 0.2729492 0 0.9619141
vn 0.2729492 0 0.9619141
vn 0.2729492 0 0.9619141
vn 0.2729492 0 0.9619141
vn 0.9619141 -1.788139E-07 -0.2729492
vn 0.9619141 -1.788139E-07 -0.2729492
vn 0.9619141 -1.788139E-07 -0.2729492
vn 0.9619141 -1.788139E-07 -0.2729492
vn -1.788139E-07 -1 0
vn -1.788139E-07 -1 0
vn -1.788139E-07 -1 0
vn -1.788139E-07 -1 0
vn 1.788139E-07 1 0
vn 1.788139E-07 1 0
vn 1.788139E-07 1 0
vn 1.788139E-07 1 0
vn 0.2729492 0 0.9619141
vn 0.2729492 0 0.9619141
vn 0.2729492 0 0.9619141
vn 0.2729492 0 0.9619141
vn 0.9619141 -1.788139E-07 -0.2729492
vn 0.9619141 -1.788139E-07 -0.2729492
vn 0.9619141 -1.788139E-07 -0.2729492
vn 0.9619141 -1.788139E-07 -0.2729492

vt -7 -6.996094
vt 5.996094 -5
vt 7.996094 -7
vt -5 -4.996094
vt 6 5.996094
vt 8 7.996094
vt -4.996094 6
vt -6.996094 8
vt -6.0625 88.9375
vt 8.929688 89.9375
vt 8.929688 88.9375
vt -6.0625 89.9375
vt -6.0625 88.9375
vt 8.929688 89.9375
vt 8.929688 88.9375
vt -6.0625 89.9375
vt -7.9375 88.9375
vt 7.058594 89.9375
vt 7.058594 88.9375
vt -7.9375 89.9375
vt -7.9375 88.9375
vt 7.0625 89.9375
vt 7.0625 88.9375
vt -7.9375 89.9375
vt -10 -9.992188
vt 10 9.992188
vt 9.992188 -10
vt -9.992188 10
vt -10 0
vt 9.992188 1
vt 9.992188 0
vt -10 1
vt -9 0
vt 10.99219 1
vt 10.99219 0
vt -9 1
vt 11 -9.992188
vt -9 9.992188
vt 10.99219 10
vt -8.992188 -10
vt -10 -9.992188
vt 10 9.992188
vt 9.992188 -10
vt -9.992188 10
vt -10 0
vt 9.992188 1
vt 9.992188 0
vt -10 1
vt -9 0
vt 10.99219 1
vt 10.99219 0
vt -9 1

g Build_1_1_170_1
usemtl Build_1_1_170_1
usemap Build_1_1_170_1
f 1/1/1 3/3/3 2/2/2
f 2/2/2 4/4/4 1/1/1
f 5/5/5 2/2/2 3/3/3
f 3/3/3 6/6/6 5/5/5
f 7/7/7 5/5/5 6/6/6
f 6/6/6 8/8/8 7/7/7
f 8/8/8 1/1/1 4/4/4
f 4/4/4 7/7/7 8/8/8
f 9/9/9 11/11/11 10/10/10
f 10/10/10 12/12/12 9/9/9
f 13/13/13 15/15/15 14/14/14
f 14/14/14 16/16/16 13/13/13
f 17/17/17 19/19/19 18/18/18
f 18/18/18 20/20/20 17/17/17
f 21/21/21 23/23/23 22/22/22
f 22/22/22 24/24/24 21/21/21
f 25/25/25 27/27/27 26/26/26
f 26/26/26 28/28/28 25/25/25
f 29/29/29 31/31/31 30/30/30
f 30/30/30 32/32/32 29/29/29
f 33/33/33 35/35/35 34/34/34
f 34/34/34 36/36/36 33/33/33
f 37/37/37 39/39/39 38/38/38
f 38/38/38 40/40/40 37/37/37
f 41/41/41 43/43/43 42/42/42
f 42/42/42 44/44/44 41/41/41
f 45/45/45 47/47/47 46/46/46
f 46/46/46 48/48/48 45/45/45
f 49/49/49 51/51/51 50/50/50
f 50/50/50 52/52/52 49/49/49
