#Build_1_1_170_3.obj

v 25.11001 7.256601 25.27399
v 23.11001 7.256601 23.27398
v 25.11001 7.256601 23.27398
v 23.11001 7.256601 24.27399
v 23.11001 7.256601 25.27398
v 25.11001 7.006601 25.27399
v 23.11001 7.006601 24.27399
v 23.11001 7.006601 25.27398
v 23.11001 7.006601 23.27398
v 25.11001 7.006601 23.27398
v 25.11001 7.256601 25.27399
v 25.11001 7.006601 23.27398
v 25.11001 7.006601 25.27399
v 25.11001 7.256601 23.27398
v 25.11001 7.256601 23.27398
v 23.11001 7.006601 23.27398
v 25.11001 7.006601 23.27398
v 23.11001 7.256601 23.27398
v 24.26394 6.506592 25.27398
v 23.76393 6.506591 21.23968
v 23.76394 6.506592 25.27398
v 24.26393 6.506591 21.23968
v 24.26394 7.006592 25.27398
v 23.76393 7.006591 21.23968
v 24.26393 7.006591 21.23968
v 23.76394 7.006592 25.27398
v 24.26394 6.506592 25.27398
v 24.26393 7.006591 21.23968
v 24.26393 6.506591 21.23968
v 24.26394 7.006592 25.27398
v 10.62212 2.256602 6.773964
v 8.622121 2.256602 8.773965
v 8.622119 2.256602 6.773965
v 9.622118 2.256602 8.773965
v 10.62212 2.256602 8.773967
v 11.50266 2.256602 8.773967
v 11.50266 2.256602 6.773968
v 10.62212 2.006602 6.773964
v 9.622118 2.006602 8.773965
v 10.62212 2.006602 8.773967
v 8.622121 2.006602 8.773965
v 8.622119 2.006602 6.773965
v 11.50266 2.006602 6.773968
v 11.50266 2.006602 8.773967
v 11.50266 2.256602 8.773967
v 11.50266 2.006602 6.773968
v 11.50266 2.006602 8.773967
v 11.50266 2.256602 6.773968
v 10.62212 2.256602 6.773964
v 8.622119 2.006602 6.773965
v 10.62212 2.006602 6.773964
v 8.622119 2.256602 6.773965
v 11.50266 2.256602 6.773968
v 11.50266 2.006602 6.773968
v 9.622123 -7.743398 6.77397
v 8.622121 -7.743398 8.773963
v 8.622119 -7.743398 6.773963
v 9.622121 -7.743398 8.773968
v 9.622123 -7.743398 6.77397
v 8.622119 -7.993398 6.773963
v 9.622123 -7.993398 6.77397
v 8.622119 -7.743398 6.773963
v 10.62212 -2.743398 22.77396
v 10.62212 2.006602 8.773967
v 10.62212 -2.993398 22.77396
v 10.62212 2.256602 8.773967
v 10.62212 -2.993398 22.77396
v 9.622118 2.006602 8.773965
v 9.622116 -2.993398 22.77396
v 10.62212 2.006602 8.773967
v 8.622122 1.506611 8.773961
v 12.12213 1.506611 8.273962
v 8.622123 1.506611 8.27396
v 12.12213 1.506611 8.773963
v 8.622126 2.006611 8.773962
v 12.12213 2.006611 8.273963
v 12.12213 2.006611 8.773963
v 8.622122 2.006611 8.273964
v 12.12213 1.506611 8.773963
v 12.12213 2.006611 8.273963
v 12.12213 1.506611 8.273962
v 12.12213 2.006611 8.773963
v 12.12213 1.506611 8.273962
v 8.622122 2.006611 8.273964
v 8.622123 1.506611 8.27396
v 12.12213 2.006611 8.273963
v 8.622125 -7.993398 8.773964
v 12.12213 -7.993398 8.273964
v 12.12213 -7.993398 8.773965
v 8.622124 -7.993398 8.273967
v 12.12213 -8.493399 8.773965
v 12.12213 -7.993398 8.273964
v 12.12213 -8.493399 8.273964
v 12.12213 -7.993398 8.773965
v 12.12213 -8.493399 8.273964
v 8.622124 -7.993398 8.273967
v 8.622124 -8.493399 8.273967
v 12.12213 -7.993398 8.273964
v 10.62212 2.256602 8.773967
v 11.50266 2.006602 8.773967
v 10.62212 2.006602 8.773967
v 11.50266 2.256602 8.773967

vn 1.788139E-07 1 0
vn 1.788139E-07 1 0
vn 1.788139E-07 1 0
vn 1.788139E-07 1 0
vn 1.788139E-07 1 0
vn -1.788139E-07 -1 0
vn -1.788139E-07 -1 0
vn -1.788139E-07 -1 0
vn -1.788139E-07 -1 0
vn -1.788139E-07 -1 0
vn 0.2729492 0 0.9619141
vn 0.2729492 0 0.9619141
vn 0.2729492 0 0.9619141
vn 0.2729492 0 0.9619141
vn 0.9619141 -1.788139E-07 -0.2729492
vn 0.9619141 -1.788139E-07 -0.2729492
vn 0.9619141 -1.788139E-07 -0.2729492
vn 0.9619141 -1.788139E-07 -0.2729492
vn -1.788139E-07 -1 0
vn -1.788139E-07 -1 0
vn -1.788139E-07 -1 0
vn -1.788139E-07 -1 0
vn 1.788139E-07 1 0
vn 1.788139E-07 1 0
vn 1.788139E-07 1 0
vn 1.788139E-07 1 0
vn 0.2729492 0 0.9619141
vn 0.2729492 0 0.9619141
vn 0.2729492 0 0.9619141
vn 0.2729492 0 0.9619141
vn 1.788139E-07 1 0
vn 1.788139E-07 1 0
vn 1.788139E-07 1 0
vn 1.788139E-07 1 0
vn 1.788139E-07 1 0
vn 1.788139E-07 1 0
vn 1.788139E-07 1 0
vn -1.788139E-07 -1 0
vn -1.788139E-07 -1 0
vn -1.788139E-07 -1 0
vn -1.788139E-07 -1 0
vn -1.788139E-07 -1 0
vn -1.788139E-07 -1 0
vn -1.788139E-07 -1 0
vn 0.2729492 0 0.9619141
vn 0.2729492 0 0.9619141
vn 0.2729492 0 0.9619141
vn 0.2729492 0 0.9619141
vn 0.9619141 -1.788139E-07 -0.2729492
vn 0.9619141 -1.788139E-07 -0.2729492
vn 0.9619141 -1.788139E-07 -0.2729492
vn 0.9619141 -1.788139E-07 -0.2729492
vn 0.9619141 -1.788139E-07 -0.2729492
vn 0.9619141 -1.788139E-07 -0.2729492
vn 1.788139E-07 1 0
vn 1.788139E-07 1 0
vn 1.788139E-07 1 0
vn 1.788139E-07 1 0
vn 0.9619141 -1.788139E-07 -0.2729492
vn 0.9619141 -1.788139E-07 -0.2729492
vn 0.9619141 -1.788139E-07 -0.2729492
vn 0.9619141 -1.788139E-07 -0.2729492
vn 0.2729492 0 0.9619141
vn 0.2729492 0 0.9619141
vn 0.2729492 0 0.9619141
vn 0.2729492 0 0.9619141
vn 0.3234863 -0.9414063 -0.09179688
vn 0.3234863 -0.9414063 -0.09179688
vn 0.3234863 -0.9414063 -0.09179688
vn 0.3234863 -0.9414063 -0.09179688
vn -1.788139E-07 -1 0
vn -1.788139E-07 -1 0
vn -1.788139E-07 -1 0
vn -1.788139E-07 -1 0
vn 1.788139E-07 1 0
vn 1.788139E-07 1 0
vn 1.788139E-07 1 0
vn 1.788139E-07 1 0
vn 0.2729492 0 0.9619141
vn 0.2729492 0 0.9619141
vn 0.2729492 0 0.9619141
vn 0.2729492 0 0.9619141
vn 0.9619141 1.013279E-06 -0.2729492
vn 0.9619141 1.013279E-06 -0.2729492
vn 0.9619141 1.013279E-06 -0.2729492
vn 0.9619141 1.013279E-06 -0.2729492
vn 1.788139E-07 1 0
vn 1.788139E-07 1 0
vn 1.788139E-07 1 0
vn 1.788139E-07 1 0
vn 0.2729492 0 0.9619141
vn 0.2729492 0 0.9619141
vn 0.2729492 0 0.9619141
vn 0.2729492 0 0.9619141
vn 0.9619141 1.013279E-06 -0.2729492
vn 0.9619141 1.013279E-06 -0.2729492
vn 0.9619141 1.013279E-06 -0.2729492
vn 0.9619141 1.013279E-06 -0.2729492
vn -0.9619141 1.788139E-07 0.2729492
vn -0.9619141 1.788139E-07 0.2729492
vn -0.9619141 1.788139E-07 0.2729492
vn -0.9619141 1.788139E-07 0.2729492

vt -2.5 -12.46875
vt 1.5 -8.46875
vt 1.499023 -12.46875
vt -0.5 -8.46875
vt -2.498047 -8.46875
vt 3.5 -12.46875
vt 1.5 -8.46875
vt 3.498047 -8.46875
vt -0.5 -8.46875
vt -0.4997559 -12.46875
vt -2.498047 1.25
vt 1.500977 0.7504883
vt -2.498047 0.7504883
vt 1.500977 1.25
vt -12.46875 1.25
vt -8.46875 0.75
vt -12.46875 0.75
vt -8.46875 1.25
vt 3.5 -9.46875
vt -4.5 -8.46875
vt 3.5 -8.46875
vt -4.5 -9.46875
vt -2.5 -9.46875
vt 5.5 -8.46875
vt 5.5 -9.46875
vt -2.5 -8.46875
vt -2.5 -0.25
vt 5.5 0.75
vt 5.5 -0.25
vt -2.5 0.75
vt 0.9067383 18.48438
vt -3.091797 14.49219
vt -3.091797 18.48438
vt -1.092773 14.49219
vt 0.9067383 14.49219
vt 2.667969 14.49219
vt 2.667969 18.48438
vt 0.09301758 18.48438
vt 2.091797 14.49219
vt 0.09301758 14.49219
vt 4.089844 14.49219
vt 4.089844 18.48438
vt -1.667969 18.48438
vt -1.667969 14.49219
vt 14.49219 10.125
vt 18.48438 9.625
vt 14.49219 9.625
vt 18.48438 10.125
vt 0.09301758 10.125
vt 4.089844 9.625
vt 0.09301758 9.625
vt 4.089844 10.125
vt -1.667969 10.125
vt -1.667969 9.625
vt -1.092773 18.48438
vt -3.091797 14.5
vt -3.091797 18.5
vt -1.092773 14.49219
vt 2.091797 -9.875
vt 4.089844 -10.375
vt 2.091797 -10.375
vt 4.089844 -9.875
vt -13.49219 0.125
vt 14.49219 9.625
vt -13.49219 -0.375
vt 14.49219 10.125
vt 0.09301758 -13.49219
vt 2.091797 14.49219
vt 2.091797 -13.49219
vt 0.09301758 14.49219
vt 0.6245117 32.34375
vt -6.375 33.34375
vt 0.6245117 33.34375
vt -6.375 32.34375
vt 0.375 32.34375
vt 7.375 33.34375
vt 7.375 32.34375
vt 0.375 33.34375
vt 32.34375 7.875
vt 33.34375 8.875
vt 33.34375 7.875
vt 32.34375 8.875
vt -6.375 7.875
vt 0.6245117 8.875
vt 0.6245117 7.875
vt -6.375 8.875
vt -3.091797 14.49219
vt 3.90625 15.49219
vt 3.90625 14.49219
vt -3.091797 15.49219
vt 14.49219 -11.375
vt 15.49219 -10.375
vt 15.49219 -11.375
vt 14.49219 -10.375
vt -2.90625 -11.375
vt 4.089844 -10.375
vt 4.089844 -11.375
vt -2.90625 -10.375
vt 0.9067383 10.125
vt 2.667969 9.625
vt 0.9067383 9.625
vt 2.667969 10.125

g Build_1_1_170_3
usemtl Build_1_1_170_3
usemap Build_1_1_170_3
f 1/1/1 3/3/3 2/2/2
f 1/1/1 2/2/2 4/4/4
f 1/1/1 4/4/4 5/5/5
f 6/6/6 8/8/8 7/7/7
f 6/6/6 7/7/7 9/9/9
f 6/6/6 9/9/9 10/10/10
f 11/11/11 13/13/13 12/12/12
f 12/12/12 14/14/14 11/11/11
f 15/15/15 17/17/17 16/16/16
f 16/16/16 18/18/18 15/15/15
f 19/19/19 21/21/21 20/20/20
f 20/20/20 22/22/22 19/19/19
f 23/23/23 25/25/25 24/24/24
f 24/24/24 26/26/26 23/23/23
f 27/27/27 29/29/29 28/28/28
f 28/28/28 30/30/30 27/27/27
f 31/31/31 33/33/33 32/32/32
f 31/31/31 32/32/32 34/34/34
f 31/31/31 34/34/34 35/35/35
f 31/31/31 35/35/35 36/36/36
f 36/36/36 37/37/37 31/31/31
f 38/38/38 40/40/40 39/39/39
f 38/38/38 39/39/39 41/41/41
f 38/38/38 41/41/41 42/42/42
f 40/40/40 38/38/38 43/43/43
f 43/43/43 44/44/44 40/40/40
f 45/45/45 47/47/47 46/46/46
f 46/46/46 48/48/48 45/45/45
f 49/49/49 51/51/51 50/50/50
f 50/50/50 52/52/52 49/49/49
f 51/51/51 49/49/49 53/53/53
f 53/53/53 54/54/54 51/51/51
f 55/55/55 57/57/57 56/56/56
f 56/56/56 58/58/58 55/55/55
f 59/59/59 61/61/61 60/60/60
f 60/60/60 62/62/62 59/59/59
f 63/63/63 65/65/65 64/64/64
f 64/64/64 66/66/66 63/63/63
f 67/67/67 69/69/69 68/68/68
f 68/68/68 70/70/70 67/67/67
f 71/71/71 73/73/73 72/72/72
f 72/72/72 74/74/74 71/71/71
f 75/75/75 77/77/77 76/76/76
f 76/76/76 78/78/78 75/75/75
f 79/79/79 81/81/81 80/80/80
f 80/80/80 82/82/82 79/79/79
f 83/83/83 85/85/85 84/84/84
f 84/84/84 86/86/86 83/83/83
f 87/87/87 89/89/89 88/88/88
f 88/88/88 90/90/90 87/87/87
f 91/91/91 93/93/93 92/92/92
f 92/92/92 94/94/94 91/91/91
f 95/95/95 97/97/97 96/96/96
f 96/96/96 98/98/98 95/95/95
f 99/99/99 101/101/101 100/100/100
f 100/100/100 102/102/102 99/99/99
