#Build_3_3_164_11.obj

v 11.76072 -100.1 6.348042
v 11.76074 -0.09999389 -3.651987
v 11.76072 -100.1 -3.651959
v 11.76074 -0.09999099 6.348013
v 11.76072 -100.1 -3.651959
v 1.760739 -0.09999168 -3.651987
v 1.760717 -100.1 -3.651957
v 11.76074 -0.09999389 -3.651987

vn 0.9995117 -2.980232E-07 -0.003520966
vn 0.9995117 -2.980232E-07 -0.003520966
vn 0.9995117 -2.980232E-07 -0.003520966
vn 0.9995117 -2.980232E-07 -0.003520966
vn -0.003520966 -5.960464E-08 -0.9995117
vn -0.003520966 -5.960464E-08 -0.9995117
vn -0.003520966 -5.960464E-08 -0.9995117
vn -0.003520966 -5.960464E-08 -0.9995117

vt -2 -16.15625
vt 2.998047 17.15625
vt 2.998047 -16.15625
vt -2 17.15625
vt -2 -16.15625
vt 2.998047 17.15625
vt 2.998047 -16.15625
vt -2 17.15625

g Build_3_3_164_11
usemtl Build_3_3_164_11
usemap Build_3_3_164_11
f 1/1/1 3/3/3 2/2/2
f 1/1/1 2/2/2 4/4/4
f 5/5/5 7/7/7 6/6/6
f 5/5/5 6/6/6 8/8/8
