#Build_3_4_168_15.obj

v 37.01814 3.847363 4.404072
v 38.01813 3.847353 3.404074
v 38.01813 3.847363 4.404074
v 37.01814 3.847353 3.404072
v 39.01813 3.847363 4.404072
v 40.01813 3.847353 3.404074
v 40.01813 3.847363 4.404074
v 39.01813 3.847353 3.404077
v 40.51813 1.647363 4.904075
v 40.51813 3.647353 2.904075
v 40.51814 1.647354 2.904075
v 40.51814 3.647363 4.90407
v 40.51814 1.647354 2.904075
v 38.51813 3.647353 2.904075
v 38.51814 1.647354 2.904075
v 40.51813 3.647353 2.904075
v 38.51814 1.647354 2.904075
v 36.51813 3.647353 2.904076
v 36.51814 1.647354 2.904075
v 38.51813 3.647353 2.904075
v 36.51813 3.647363 4.904071
v 38.01813 3.647363 4.404074
v 38.51813 3.647363 4.904071
v 37.01814 3.647363 4.404072
v 38.01813 3.647353 3.404074
v 38.51813 3.647353 2.904075
v 37.01814 3.647353 3.404072
v 36.51813 3.647353 2.904076
v 38.51813 3.647363 4.904071
v 40.01813 3.647363 4.404074
v 40.51814 3.647363 4.90407
v 39.01813 3.647363 4.404072
v 40.01813 3.647353 3.404074
v 40.51813 3.647353 2.904075
v 39.01813 3.647353 3.404077
v 38.51813 3.647353 2.904075
v 37.01814 3.647363 4.404072
v 38.01813 3.847363 4.404074
v 38.01813 3.647363 4.404074
v 37.01814 3.847363 4.404072
v 38.01813 3.647363 4.404074
v 38.01813 3.847353 3.404074
v 38.01813 3.647353 3.404074
v 38.01813 3.847363 4.404074
v 38.01813 3.647353 3.404074
v 37.01814 3.847353 3.404072
v 37.01814 3.647353 3.404072
v 38.01813 3.847353 3.404074
v 37.01814 3.647353 3.404072
v 37.01814 3.847363 4.404072
v 37.01814 3.647363 4.404072
v 37.01814 3.847353 3.404072
v 39.01813 3.647363 4.404072
v 40.01813 3.847363 4.404074
v 40.01813 3.647363 4.404074
v 39.01813 3.847363 4.404072
v 40.01813 3.647363 4.404074
v 40.01813 3.847353 3.404074
v 40.01813 3.647353 3.404074
v 40.01813 3.847363 4.404074
v 40.01813 3.647353 3.404074
v 39.01813 3.847353 3.404077
v 39.01813 3.647353 3.404077
v 40.01813 3.847353 3.404074
v 39.01813 3.647353 3.404077
v 39.01813 3.847363 4.404072
v 39.01813 3.647363 4.404072
v 39.01813 3.847353 3.404077
v 34.58115 2.679287 -3.966142
v 34.96494 2.679287 -2.604993
v 34.09248 2.679287 -3.093675
v 35.45362 2.679287 -3.477466
v 34.58115 1.679287 -3.966137
v 34.09248 2.679287 -3.093675
v 34.09248 1.679287 -3.09367
v 34.58115 2.679287 -3.966142
v 35.45362 1.679287 -3.477462
v 34.58115 2.679287 -3.966142
v 34.58115 1.679287 -3.966137
v 35.45362 2.679287 -3.477466
v 33.98651 3.688232 -3.883777
v 31.66293 3.68624 -2.271023
v 32.01834 3.685264 -4.239191
v 33.63109 3.689209 -1.915613
v 33.98651 3.688232 -3.883777
v 33.63384 1.689209 -1.914121
v 33.63109 3.689209 -1.915613
v 33.98925 1.688232 -3.882284
v 32.01834 3.685264 -4.239191
v 33.98925 1.688232 -3.882284
v 33.98651 3.688232 -3.883777
v 32.02109 1.685264 -4.237701
v 31.66293 3.68624 -2.271023
v 32.02109 1.685264 -4.237701
v 32.01834 3.685264 -4.239191
v 31.66567 1.68624 -2.269537

vn 9.655952E-06 1 -2.741814E-06
vn 9.655952E-06 1 -2.741814E-06
vn 9.655952E-06 1 -2.741814E-06
vn 9.655952E-06 1 -2.741814E-06
vn 9.655952E-06 1 -2.741814E-06
vn 9.655952E-06 1 -2.741814E-06
vn 9.655952E-06 1 -2.741814E-06
vn 9.655952E-06 1 -2.741814E-06
vn 0.2729492 0 0.9619141
vn 0.2729492 0 0.9619141
vn 0.2729492 0 0.9619141
vn 0.2729492 0 0.9619141
vn 0.9619141 -8.940697E-07 -0.2729492
vn 0.9619141 -8.940697E-07 -0.2729492
vn 0.9619141 -8.940697E-07 -0.2729492
vn 0.9619141 -8.940697E-07 -0.2729492
vn 0.9619141 -8.940697E-07 -0.2729492
vn 0.9619141 -8.940697E-07 -0.2729492
vn 0.9619141 -8.940697E-07 -0.2729492
vn 0.9619141 -8.940697E-07 -0.2729492
vn 2.980232E-07 1 -5.960464E-08
vn 2.980232E-07 1 -5.960464E-08
vn 2.980232E-07 1 -5.960464E-08
vn 2.980232E-07 1 -5.960464E-08
vn 6.556511E-06 1 -1.847744E-06
vn 6.556511E-06 1 -1.847744E-06
vn 2.980232E-07 1 -5.960464E-08
vn 2.980232E-07 1 -5.960464E-08
vn 2.980232E-07 1 -5.960464E-08
vn 2.980232E-07 1 -5.960464E-08
vn 2.980232E-07 1 -5.960464E-08
vn 2.980232E-07 1 -5.960464E-08
vn 6.556511E-06 1 -1.847744E-06
vn 6.556511E-06 1 -1.847744E-06
vn 2.980232E-07 1 -5.960464E-08
vn 2.980232E-07 1 -5.960464E-08
vn -0.9619141 2.980232E-07 0.2729492
vn -0.9619141 2.980232E-07 0.2729492
vn -0.9619141 2.980232E-07 0.2729492
vn -0.9619141 2.980232E-07 0.2729492
vn 0.2729492 0 0.9619141
vn 0.2729492 0 0.9619141
vn 0.2729492 0 0.9619141
vn 0.2729492 0 0.9619141
vn 0.9619141 -2.980232E-07 -0.2729492
vn 0.9619141 -2.980232E-07 -0.2729492
vn 0.9619141 -2.980232E-07 -0.2729492
vn 0.9619141 -2.980232E-07 -0.2729492
vn -0.2729492 0 -0.9619141
vn -0.2729492 0 -0.9619141
vn -0.2729492 0 -0.9619141
vn -0.2729492 0 -0.9619141
vn -0.9619141 2.980232E-07 0.2729492
vn -0.9619141 2.980232E-07 0.2729492
vn -0.9619141 2.980232E-07 0.2729492
vn -0.9619141 2.980232E-07 0.2729492
vn 0.2729492 0 0.9619141
vn 0.2729492 0 0.9619141
vn 0.2729492 0 0.9619141
vn 0.2729492 0 0.9619141
vn 0.9619141 -2.980232E-07 -0.2729492
vn 0.9619141 -2.980232E-07 -0.2729492
vn 0.9619141 -2.980232E-07 -0.2729492
vn 0.9619141 -2.980232E-07 -0.2729492
vn -0.2729492 0 -0.9619141
vn -0.2729492 0 -0.9619141
vn -0.2729492 0 -0.9619141
vn -0.2729492 0 -0.9619141
vn 2.980232E-07 1 -5.960464E-08
vn 2.980232E-07 1 -5.960464E-08
vn 2.980232E-07 1 -5.960464E-08
vn 2.980232E-07 1 -5.960464E-08
vn 0.2319336 -2.503395E-06 -0.9726563
vn 0.2319336 -2.503395E-06 -0.9726563
vn 0.2319336 -2.503395E-06 -0.9726563
vn 0.2319336 -2.503395E-06 -0.9726563
vn 0.9726563 -4.470348E-06 0.2319336
vn 0.9726563 -4.470348E-06 0.2319336
vn 0.9726563 -4.470348E-06 0.2319336
vn 0.9726563 -4.470348E-06 0.2319336
vn 0.000341177 0.9995117 -0.001524925
vn 0.000341177 0.9995117 -0.001524925
vn 0.000341177 0.9995117 -0.001524925
vn 0.000341177 0.9995117 -0.001524925
vn 0.09765625 0.00148201 0.9951172
vn 0.09765625 0.00148201 0.9951172
vn 0.09765625 0.00148201 0.9951172
vn 0.09765625 0.00148201 0.9951172
vn 0.9951172 -0.0004901886 -0.09765625
vn 0.9951172 -0.0004901886 -0.09765625
vn 0.9951172 -0.0004901886 -0.09765625
vn 0.9951172 -0.0004901886 -0.09765625
vn -0.09765625 -0.00148201 -0.9951172
vn -0.09765625 -0.00148201 -0.9951172
vn -0.09765625 -0.00148201 -0.9951172
vn -0.09765625 -0.00148201 -0.9951172

vt 0.8515625 0.2059326
vt 0.8828125 0.2370605
vt 0.8828125 0.2059326
vt 0.8515625 0.2370605
vt 0.8828125 0.2370605
vt 0.8515625 0.2059326
vt 0.8515625 0.2370605
vt 0.8828125 0.2059326
vt 0.8984375 0.1904297
vt 0.9604492 0.2526855
vt 0.9604492 0.1904297
vt 0.8984375 0.2526855
vt 0.8359375 0.1279297
vt 0.8979492 0.1903076
vt 0.8979492 0.1279297
vt 0.8359375 0.1903076
vt 0.8359375 0.1279297
vt 0.8979492 0.1901855
vt 0.8979492 0.1279297
vt 0.8359375 0.1901855
vt 0.8359375 0.1904297
vt 0.8828125 0.2059326
vt 0.8979492 0.1904297
vt 0.8515625 0.2059326
vt 0.8828125 0.2370605
vt 0.8979492 0.2526855
vt 0.8515625 0.2370605
vt 0.8359375 0.2526855
vt 0.8979492 0.2526855
vt 0.8515625 0.2370605
vt 0.8359375 0.2526855
vt 0.8828125 0.2370605
vt 0.8515625 0.2059326
vt 0.8359375 0.1904297
vt 0.8828125 0.2059326
vt 0.8979492 0.1904297
vt 0.8515625 0.1901855
vt 0.8823242 0.1964111
vt 0.8823242 0.1901855
vt 0.8515625 0.1964111
vt 0.8515625 0.1901855
vt 0.8823242 0.1964111
vt 0.8823242 0.1901855
vt 0.8515625 0.1964111
vt 0.8515625 0.1901855
vt 0.8828125 0.1964111
vt 0.8828125 0.1901855
vt 0.8515625 0.1964111
vt 0.8515625 0.1901855
vt 0.8828125 0.1964111
vt 0.8828125 0.1901855
vt 0.8515625 0.1964111
vt 0.8510742 0.1901855
vt 0.8823242 0.1964111
vt 0.8823242 0.1901855
vt 0.8510742 0.1964111
vt 0.8515625 0.1901855
vt 0.8823242 0.1964111
vt 0.8823242 0.1901855
vt 0.8515625 0.1964111
vt 0.8510742 0.1903076
vt 0.8823242 0.1965332
vt 0.8823242 0.1903076
vt 0.8510742 0.1965332
vt 0.8515625 0.1901855
vt 0.8828125 0.1964111
vt 0.8828125 0.1901855
vt 0.8515625 0.1964111
vt 0.96875 0.1103516
vt 0.9375 0.1416016
vt 0.96875 0.1416016
vt 0.9375 0.1103516
vt 0.90625 0.1591797
vt 0.9375 0.1279297
vt 0.90625 0.1279297
vt 0.9375 0.1591797
vt 0.9375 0.1425781
vt 0.96875 0.1738281
vt 0.96875 0.1425781
vt 0.9375 0.1738281
vt 0.9614258 0.3156738
vt 0.8994141 0.2531738
vt 0.8994141 0.3156738
vt 0.9614258 0.2531738
vt 0.8979492 0.3151855
vt 0.8359375 0.2529297
vt 0.8359375 0.3151855
vt 0.8979492 0.2529297
vt 0.8979492 0.3151855
vt 0.8359375 0.2529297
vt 0.8359375 0.3151855
vt 0.8979492 0.2529297
vt 0.8979492 0.3151855
vt 0.8359375 0.2529297
vt 0.8359375 0.3151855
vt 0.8979492 0.2529297

g Build_3_4_168_15
usemtl Build_3_4_168_15
usemap Build_3_4_168_15
f 1/1/1 3/3/3 2/2/2
f 1/1/1 2/2/2 4/4/4
f 5/5/5 7/7/7 6/6/6
f 5/5/5 6/6/6 8/8/8
f 9/9/9 11/11/11 10/10/10
f 9/9/9 10/10/10 12/12/12
f 13/13/13 15/15/15 14/14/14
f 13/13/13 14/14/14 16/16/16
f 17/17/17 19/19/19 18/18/18
f 17/17/17 18/18/18 20/20/20
f 21/21/21 23/23/23 22/22/22
f 21/21/21 22/22/22 24/24/24
f 23/23/23 25/25/25 22/22/22
f 23/23/23 26/26/26 25/25/25
f 26/26/26 27/27/27 25/25/25
f 26/26/26 28/28/28 27/27/27
f 28/28/28 21/21/21 24/24/24
f 28/28/28 24/24/24 27/27/27
f 29/29/29 31/31/31 30/30/30
f 29/29/29 30/30/30 32/32/32
f 31/31/31 33/33/33 30/30/30
f 31/31/31 34/34/34 33/33/33
f 34/34/34 35/35/35 33/33/33
f 34/34/34 36/36/36 35/35/35
f 36/36/36 29/29/29 32/32/32
f 36/36/36 32/32/32 35/35/35
f 37/37/37 39/39/39 38/38/38
f 37/37/37 38/38/38 40/40/40
f 41/41/41 43/43/43 42/42/42
f 41/41/41 42/42/42 44/44/44
f 45/45/45 47/47/47 46/46/46
f 45/45/45 46/46/46 48/48/48
f 49/49/49 51/51/51 50/50/50
f 49/49/49 50/50/50 52/52/52
f 53/53/53 55/55/55 54/54/54
f 53/53/53 54/54/54 56/56/56
f 57/57/57 59/59/59 58/58/58
f 57/57/57 58/58/58 60/60/60
f 61/61/61 63/63/63 62/62/62
f 61/61/61 62/62/62 64/64/64
f 65/65/65 67/67/67 66/66/66
f 65/65/65 66/66/66 68/68/68
f 69/69/69 71/71/71 70/70/70
f 70/70/70 72/72/72 69/69/69
f 73/73/73 75/75/75 74/74/74
f 74/74/74 76/76/76 73/73/73
f 77/77/77 79/79/79 78/78/78
f 78/78/78 80/80/80 77/77/77
f 81/81/81 83/83/83 82/82/82
f 82/82/82 84/84/84 81/81/81
f 85/85/85 87/87/87 86/86/86
f 86/86/86 88/88/88 85/85/85
f 89/89/89 91/91/91 90/90/90
f 90/90/90 92/92/92 89/89/89
f 93/93/93 95/95/95 94/94/94
f 94/94/94 96/96/96 93/93/93
